<svg width="71" height="59" viewBox="0 0 71 59" fill="none" xmlns="http://www.w3.org/2000/svg">
<path d="M16.4049 5.936H11.0409L9.56489 12.668C9.09689 14.828 8.70089 17.024 8.30489 19.364H8.16089C7.80089 17.096 7.33289 15.008 6.75689 12.632L5.13689 5.936H0.09689L4.88489 23H10.9329L12.3369 15.656C12.6969 13.712 13.0569 11.588 13.3449 9.536H13.5249C13.7769 11.624 14.1009 13.676 14.5329 15.656L16.0809 23H22.0929L26.8809 5.936H22.0569L20.7249 12.632C20.2209 15.044 19.7529 17.132 19.3209 19.364H19.1769C18.7809 17.024 18.3849 14.828 17.8809 12.668L16.4049 5.936ZM35.209 9.536C37.405 9.536 38.521 10.688 38.665 12.956H31.465C31.789 10.544 33.049 9.536 35.209 9.536ZM35.281 23.468C39.961 23.468 42.193 21.092 43.021 17.996L38.773 16.808C38.377 18.14 37.621 19.256 35.353 19.256C33.049 19.256 31.753 18.176 31.429 15.728H43.093C43.165 14.792 43.165 14.216 43.165 13.46C43.165 8.816 40.609 5.468 35.353 5.468C29.809 5.468 26.533 8.924 26.533 14.828C26.533 20.516 30.133 23.468 35.281 23.468ZM53.3699 19.076C51.1019 19.076 49.7699 17.348 49.7699 14.576V14.252C49.7699 11.444 51.1019 9.896 53.3699 9.896C55.8539 9.896 56.9339 11.552 56.9339 14.396C56.9339 17.348 55.8179 19.076 53.3699 19.076ZM49.7699 0.931999H44.8379V23H49.7699V18.392H49.8419C50.6699 21.992 52.5059 23.504 55.4579 23.504C59.5979 23.504 61.7939 20.12 61.7939 14.36C61.7939 8.816 59.6699 5.468 55.5659 5.468C52.6139 5.468 50.6699 6.944 49.8419 10.544H49.7699V0.931999ZM18.3168 52.636C18.3168 55.876 19.9728 58.504 23.9328 58.504C25.8048 58.504 26.6688 58.252 27.9648 57.856L27.4248 53.32C26.8128 53.464 25.9488 53.716 25.1928 53.716C23.7168 53.716 23.2128 53.068 23.2128 51.7V45.04H27.7128V40.936H23.2128V36.652H18.3168V40.936H16.3368V45.04H18.3168V52.636ZM36.2125 54.4C34.3405 54.4 33.6925 53.572 33.6925 52.528C33.6925 51.592 34.5565 50.944 35.9965 50.944H39.6685V51.448C39.6685 53.176 38.3005 54.4 36.2125 54.4ZM39.6685 58H44.5645V47.416C44.5645 43.06 42.4045 40.54 37.2205 40.54C31.9285 40.54 29.8405 43.096 29.4085 46.66L34.0165 47.308C34.3405 45.328 35.3845 44.608 37.0045 44.608C38.8765 44.608 39.6685 45.616 39.6685 47.452V48.172H35.2405C30.7405 48.172 28.9045 50.296 28.9045 53.392C28.9045 56.74 31.1365 58.36 34.0885 58.36C36.9685 58.36 38.8405 56.74 39.5965 53.824H39.6685V58ZM51.7513 35.932H46.8193V58H51.7513V35.932ZM59.0019 35.932H54.0699V58H59.0019V51.16H59.2179L64.8339 58H70.6299V57.928L63.1779 49.324L70.3059 41.008V40.936H64.6179L59.2899 47.596H59.0019V35.932Z" fill="#1867F2"/>
</svg>
