<svg xmlns="http://www.w3.org/2000/svg" viewBox="0 0 36 45" fill="none" x="0px" y="0px"><path fill-rule="evenodd" clip-rule="evenodd" d="M13.8906 9.20437C15.2197 8.3183 17 9.27109 17 10.8685V27.1314C17 28.7288 15.2197 29.6816 13.8906 28.7955L9.94915 26.1679C9.78488 26.0584 9.59187 26 9.39445 26H8C5.23858 26 3 23.7614 3 21V17C3 14.2385 5.23858 12 8 12H9.39445C9.59187 12 9.78488 11.9415 9.94915 11.832L13.8906 9.20437ZM15 10.8685L11.0585 13.4961C10.5657 13.8246 9.98672 14 9.39445 14H8C6.34315 14 5 15.3431 5 17V21C5 22.6568 6.34315 24 8 24H9.39445C9.98672 24 10.5657 24.1753 11.0585 24.5038L15 27.1314L15 10.8685ZM25.5858 19L21.2929 14.7071L22.7071 13.2929L27 17.5857L31.2929 13.2929L32.7071 14.7071L28.4142 19L32.7071 23.2929L31.2929 24.7071L27 20.4142L22.7071 24.7071L21.2929 23.2929L25.5858 19Z" fill="black"/><text x="0" y="51" fill="#000000" font-size="5px" font-weight="bold" font-family="'Helvetica Neue', Helvetica, Arial-Unicode, Arial, Sans-serif">Created by Evgenii Likhachov</text><text x="0" y="56" fill="#000000" font-size="5px" font-weight="bold" font-family="'Helvetica Neue', Helvetica, Arial-Unicode, Arial, Sans-serif">from the Noun Project</text></svg>