<svg width="578" height="430" viewBox="0 0 578 430" fill="none" xmlns="http://www.w3.org/2000/svg">
<rect x="200" y="157" width="376" height="116" rx="58" fill="#F9EB48"/>
<rect x="25" y="314" width="474" height="116" rx="58" fill="#F19DCD"/>
<rect x="25" y="1.52588e-05" width="345" height="116" rx="58" fill="#FC9053"/>
<path d="M158.943 64.776C159.807 59.952 160.743 54.48 161.535 49.44H161.967C162.687 54.48 163.623 59.952 164.487 64.776L168.159 84H182.415L192.999 40.8H182.415L178.815 59.304C177.879 64.704 176.871 69.6 176.079 74.784H175.503C174.711 69.456 173.847 64.416 172.911 59.304L169.023 40.8H155.919L151.815 59.304C150.807 64.416 149.871 69.456 148.935 74.784H148.431C147.711 69.6 146.847 64.704 145.839 59.304L141.951 40.8H130.791L141.375 84H155.415L158.943 64.776ZM208.82 57.072C213.212 57.072 215.444 59.376 215.732 63.912H201.332C201.98 59.088 204.5 57.072 208.82 57.072ZM208.964 84.936C218.324 84.936 222.788 80.184 224.444 73.992L215.948 71.616C215.156 74.28 213.644 76.512 209.108 76.512C204.5 76.512 201.908 74.352 201.26 69.456H224.588C224.732 67.584 224.732 66.432 224.732 64.92C224.732 55.632 219.62 48.936 209.108 48.936C198.02 48.936 191.468 55.848 191.468 67.656C191.468 79.032 198.668 84.936 208.964 84.936ZM245.142 76.152C240.606 76.152 237.942 72.696 237.942 67.152V66.504C237.942 60.888 240.606 57.792 245.142 57.792C250.11 57.792 252.27 61.104 252.27 66.792C252.27 72.696 250.038 76.152 245.142 76.152ZM237.942 39.864H228.078V84H237.942V74.784H238.086C239.742 81.984 243.414 85.008 249.318 85.008C257.598 85.008 261.99 78.24 261.99 66.72C261.99 55.632 257.742 48.936 249.534 48.936C243.63 48.936 239.742 51.888 238.086 59.088H237.942V39.864Z" fill="black"/>
<path d="M330.747 205.592H343.203V239H353.571V205.592H365.955V195.8H330.747V205.592ZM378.231 231.8C374.487 231.8 373.191 230.144 373.191 228.056C373.191 226.184 374.919 224.888 377.799 224.888H385.143V225.896C385.143 229.352 382.407 231.8 378.231 231.8ZM385.143 239H394.935V217.832C394.935 209.12 390.615 204.08 380.247 204.08C369.663 204.08 365.487 209.192 364.623 216.32L373.839 217.616C374.487 213.656 376.575 212.216 379.815 212.216C383.559 212.216 385.143 214.232 385.143 217.904V219.344H376.287C367.287 219.344 363.615 223.592 363.615 229.784C363.615 236.48 368.079 239.72 373.983 239.72C379.743 239.72 383.487 236.48 384.999 230.648H385.143V239ZM409.309 194.864H399.445V239H409.309V194.864ZM423.81 194.864H413.946V239H423.81V225.32H424.242L435.474 239H447.066V238.856L432.162 221.648L446.418 205.016V204.872H435.042L424.386 218.192H423.81V194.864Z" fill="black"/>
<path d="M163.527 362.016C168.279 362.016 170.439 363.888 170.439 367.848C170.439 371.88 168.135 373.752 163.671 373.752H157.551V362.016H163.527ZM164.823 382.968C175.335 382.968 181.239 376.272 181.239 367.848C181.239 357.912 175.695 352.8 164.463 352.8H147.183V396H157.551V382.968H164.823ZM200.525 397.008C211.469 397.008 218.165 390.168 218.165 378.936C218.165 367.56 211.253 360.936 200.525 360.936C189.725 360.936 182.813 367.56 182.813 378.936C182.813 390.168 189.509 397.008 200.525 397.008ZM200.525 369.864C205.493 369.864 208.373 373.392 208.373 378.864C208.373 384.408 205.565 388.008 200.453 388.008C195.413 388.008 192.677 384.408 192.677 378.864C192.677 373.392 195.485 369.864 200.525 369.864ZM237.086 388.152C232.046 388.152 229.886 384.768 229.886 379.152C229.886 373.176 232.118 369.72 237.086 369.72C241.55 369.72 244.286 373.176 244.286 378.72V379.368C244.286 384.984 241.55 388.152 237.086 388.152ZM244.286 396H254.078V351.864H244.286V371.16H244.142C242.486 363.888 238.742 360.864 232.838 360.936C224.63 360.864 220.166 367.632 220.166 379.152C220.166 390.24 224.414 397.008 232.694 397.008C238.526 397.008 242.414 393.984 244.07 386.784H244.286V396ZM282.146 376.704L291.65 375.336C290.282 366.192 285.818 360.936 275.09 360.936C264.362 360.936 257.378 367.632 257.378 379.152C257.378 390.96 264.506 397.008 275.306 397.008C285.53 397.008 290.498 391.32 291.65 382.392L282.218 380.592C281.354 384.912 279.626 388.008 275.09 388.008C270.482 388.008 267.458 384.984 267.458 378.864C267.458 372.6 270.626 369.864 275.018 369.864C279.41 369.864 281.354 372.744 282.146 376.704ZM308.651 388.8C304.907 388.8 303.611 387.144 303.611 385.056C303.611 383.184 305.339 381.888 308.219 381.888H315.563V382.896C315.563 386.352 312.827 388.8 308.651 388.8ZM315.563 396H325.355V374.832C325.355 366.12 321.035 361.08 310.667 361.08C300.083 361.08 295.907 366.192 295.043 373.32L304.259 374.616C304.907 370.656 306.995 369.216 310.235 369.216C313.979 369.216 315.563 371.232 315.563 374.904V376.344H306.707C297.707 376.344 294.035 380.592 294.035 386.784C294.035 393.48 298.499 396.72 304.403 396.72C310.163 396.72 313.907 393.48 315.419 387.648H315.563V396ZM344.264 397.008C354.488 397.008 358.952 392.832 358.952 386.136C358.952 381.024 356.144 377.352 346.352 375.408C339.656 374.184 338.792 372.888 338.792 371.016C338.792 369.144 340.376 367.992 343.256 367.992C346.64 367.992 348.296 369.72 349.088 373.392L358.448 371.304C357.152 364.968 353.12 360.936 343.328 360.936C333.752 360.936 329.072 364.968 329.072 371.448C329.072 377.064 332.312 380.304 341.888 382.32C348.008 383.544 349.304 384.624 349.304 386.496C349.232 388.584 347.648 389.736 344.48 389.736C340.304 389.736 338.288 387.504 337.352 383.688L328.208 385.488C329.216 391.752 332.744 397.008 344.264 397.008ZM364.457 385.272C364.457 391.752 367.769 397.008 375.689 397.008C379.433 397.008 381.161 396.504 383.753 395.712L382.673 386.64C381.449 386.928 379.721 387.432 378.209 387.432C375.257 387.432 374.249 386.136 374.249 383.4V370.08H383.249V361.872H374.249V353.304H364.457V361.872H360.497V370.08H364.457V385.272Z" fill="black"/>
<path d="M492.094 37.9055L450.535 80.378" stroke="#F19DCD" stroke-width="8" stroke-linecap="round"/>
<path d="M450.535 33.7953L450.535 79.5" stroke="#F19DCD" stroke-width="8" stroke-linecap="round"/>
<path d="M495.749 80.372L451 80.372" stroke="#F19DCD" stroke-width="8" stroke-linecap="round"/>
<circle cx="472" cy="58" r="54" stroke="#F19DCD" stroke-width="8"/>
<path d="M54.5824 214.865L114.004 214.501" stroke="#1867F2" stroke-width="8" stroke-linecap="round"/>
<path d="M80.9095 247.284L113.38 215.119" stroke="#1867F2" stroke-width="8" stroke-linecap="round"/>
<path d="M82.1809 182.383L113.673 214.175" stroke="#1867F2" stroke-width="8" stroke-linecap="round"/>
<circle cx="83" cy="215" r="54" transform="rotate(-134.729 83 215)" stroke="#1867F2" stroke-width="8"/>
</svg>
