<svg width="578" height="430" viewBox="0 0 578 430" fill="none" xmlns="http://www.w3.org/2000/svg">
<rect x="199.023" y="157" width="376" height="116" rx="58" fill="#F9EB48"/>
<rect x="24.0236" y="314" width="474" height="116" rx="58" fill="#F19DCD"/>
<rect x="24.0236" width="345" height="116" rx="58" fill="#FC9053"/>
<path d="M157.967 64.776C158.831 59.952 159.767 54.48 160.559 49.44H160.991C161.711 54.48 162.647 59.952 163.511 64.776L167.183 84H181.439L192.023 40.8H181.439L177.839 59.304C176.903 64.704 175.895 69.6 175.103 74.784H174.527C173.735 69.456 172.871 64.416 171.935 59.304L168.047 40.8H154.943L150.839 59.304C149.831 64.416 148.895 69.456 147.959 74.784H147.455C146.735 69.6 145.871 64.704 144.863 59.304L140.975 40.8H129.815L140.399 84H154.439L157.967 64.776ZM207.844 57.072C212.236 57.072 214.468 59.376 214.756 63.912H200.356C201.004 59.088 203.524 57.072 207.844 57.072ZM207.988 84.936C217.348 84.936 221.812 80.184 223.468 73.992L214.972 71.616C214.18 74.28 212.668 76.512 208.132 76.512C203.524 76.512 200.932 74.352 200.284 69.456H223.612C223.756 67.584 223.756 66.432 223.756 64.92C223.756 55.632 218.644 48.936 208.132 48.936C197.044 48.936 190.492 55.848 190.492 67.656C190.492 79.032 197.692 84.936 207.988 84.936ZM244.166 76.152C239.63 76.152 236.966 72.696 236.966 67.152V66.504C236.966 60.888 239.63 57.792 244.166 57.792C249.134 57.792 251.294 61.104 251.294 66.792C251.294 72.696 249.062 76.152 244.166 76.152ZM236.966 39.864H227.102V84H236.966V74.784H237.11C238.766 81.984 242.438 85.008 248.342 85.008C256.622 85.008 261.014 78.24 261.014 66.72C261.014 55.632 256.766 48.936 248.558 48.936C242.654 48.936 238.766 51.888 237.11 59.088H236.966V39.864Z" fill="white"/>
<path d="M329.771 205.592H326.771V208.592H329.771V205.592ZM342.227 205.592H345.227V202.592H342.227V205.592ZM342.227 239H339.227V242H342.227V239ZM352.595 239V242H355.595V239H352.595ZM352.595 205.592V202.592H349.595V205.592H352.595ZM364.979 205.592V208.592H367.979V205.592H364.979ZM364.979 195.8H367.979V192.8H364.979V195.8ZM329.771 195.8V192.8H326.771V195.8H329.771ZM329.771 208.592H342.227V202.592H329.771V208.592ZM339.227 205.592V239H345.227V205.592H339.227ZM342.227 242H352.595V236H342.227V242ZM355.595 239V205.592H349.595V239H355.595ZM352.595 208.592H364.979V202.592H352.595V208.592ZM367.979 205.592V195.8H361.979V205.592H367.979ZM364.979 192.8H329.771V198.8H364.979V192.8ZM326.771 195.8V205.592H332.771V195.8H326.771ZM384.167 224.888H387.167V221.888H384.167V224.888ZM384.167 239H381.167V242H384.167V239ZM393.959 239V242H396.959V239H393.959ZM363.647 216.32L360.668 215.959L360.314 218.881L363.229 219.291L363.647 216.32ZM372.863 217.616L372.445 220.587L375.349 220.995L375.823 218.1L372.863 217.616ZM384.167 219.344V222.344H387.167V219.344H384.167ZM384.023 230.648V227.648H381.701L381.119 229.895L384.023 230.648ZM384.167 230.648H387.167V227.648H384.167V230.648ZM377.255 228.8C375.766 228.8 375.318 228.464 375.276 228.428C375.263 228.417 375.266 228.419 375.26 228.405C375.248 228.376 375.215 228.272 375.215 228.056H369.215C369.215 229.741 369.762 231.611 371.385 232.994C372.927 234.308 374.999 234.8 377.255 234.8V228.8ZM375.215 228.056C375.215 228.054 375.215 228.071 375.207 228.1C375.2 228.13 375.188 228.162 375.171 228.193C375.136 228.259 375.111 228.262 375.166 228.222C375.303 228.126 375.789 227.888 376.823 227.888V221.888C374.976 221.888 373.158 222.298 371.711 223.318C370.177 224.398 369.215 226.077 369.215 228.056H375.215ZM376.823 227.888H384.167V221.888H376.823V227.888ZM381.167 224.888V225.896H387.167V224.888H381.167ZM381.167 225.896C381.167 226.78 380.841 227.419 380.313 227.876C379.753 228.361 378.767 228.8 377.255 228.8V234.8C379.918 234.8 382.388 234.015 384.24 232.412C386.124 230.781 387.167 228.468 387.167 225.896H381.167ZM384.167 242H393.959V236H384.167V242ZM396.959 239V217.832H390.959V239H396.959ZM396.959 217.832C396.959 213.019 395.763 208.672 392.612 205.556C389.467 202.447 384.895 201.08 379.271 201.08V207.08C384.014 207.08 386.786 208.233 388.393 209.822C389.994 211.404 390.959 213.933 390.959 217.832H396.959ZM379.271 201.08C373.515 201.08 369.029 202.473 365.836 205.271C362.637 208.074 361.158 211.92 360.668 215.959L366.625 216.681C366.999 213.592 368.04 211.318 369.791 209.783C371.548 208.243 374.442 207.08 379.271 207.08V201.08ZM363.229 219.291L372.445 220.587L373.28 214.645L364.064 213.349L363.229 219.291ZM375.823 218.1C376.077 216.546 376.536 215.959 376.819 215.719C377.099 215.481 377.641 215.216 378.839 215.216V209.216C376.796 209.216 374.674 209.671 372.938 211.143C371.205 212.613 370.296 214.726 369.902 217.132L375.823 218.1ZM378.839 215.216C380.188 215.216 380.567 215.567 380.674 215.686C380.839 215.87 381.167 216.428 381.167 217.904H387.167C387.167 215.707 386.702 213.422 385.14 211.68C383.518 209.873 381.233 209.216 378.839 209.216V215.216ZM381.167 217.904V219.344H387.167V217.904H381.167ZM384.167 216.344H375.311V222.344H384.167V216.344ZM375.311 216.344C370.386 216.344 366.385 217.503 363.594 220.011C360.752 222.565 359.639 226.089 359.639 229.784H365.639C365.639 227.287 366.361 225.591 367.605 224.473C368.901 223.309 371.235 222.344 375.311 222.344V216.344ZM359.639 229.784C359.639 233.839 361.017 237.197 363.616 239.506C366.16 241.766 369.534 242.72 373.007 242.72V236.72C370.575 236.72 368.765 236.054 367.601 235.02C366.492 234.035 365.639 232.425 365.639 229.784H359.639ZM373.007 242.72C376.475 242.72 379.563 241.732 382.029 239.675C384.471 237.638 386.055 234.761 386.927 231.401L381.119 229.895C380.478 232.367 379.434 234.026 378.186 235.067C376.962 236.088 375.298 236.72 373.007 236.72V242.72ZM384.023 233.648H384.167V227.648H384.023V233.648ZM381.167 230.648V239H387.167V230.648H381.167ZM408.332 194.864H411.332V191.864H408.332V194.864ZM398.468 194.864V191.864H395.468V194.864H398.468ZM398.468 239H395.468V242H398.468V239ZM408.332 239V242H411.332V239H408.332ZM408.332 191.864H398.468V197.864H408.332V191.864ZM395.468 194.864V239H401.468V194.864H395.468ZM398.468 242H408.332V236H398.468V242ZM411.332 239V194.864H405.332V239H411.332ZM422.833 194.864H425.833V191.864H422.833V194.864ZM412.969 194.864V191.864H409.969V194.864H412.969ZM412.969 239H409.969V242H412.969V239ZM422.833 239V242H425.833V239H422.833ZM422.833 225.32V222.32H419.833V225.32H422.833ZM423.265 225.32L425.584 223.416L424.684 222.32H423.265V225.32ZM434.497 239L432.179 240.904L433.079 242H434.497V239ZM446.089 239V242H449.089V239H446.089ZM446.089 238.856H449.089V237.737L448.357 236.892L446.089 238.856ZM431.185 221.648L428.908 219.696L427.225 221.658L428.918 223.612L431.185 221.648ZM445.441 205.016L447.719 206.968L448.441 206.126V205.016H445.441ZM445.441 204.872H448.441V201.872H445.441V204.872ZM434.065 204.872V201.872H432.623L431.723 202.998L434.065 204.872ZM423.409 218.192V221.192H424.851L425.752 220.066L423.409 218.192ZM422.833 218.192H419.833V221.192H422.833V218.192ZM422.833 191.864H412.969V197.864H422.833V191.864ZM409.969 194.864V239H415.969V194.864H409.969ZM412.969 242H422.833V236H412.969V242ZM425.833 239V225.32H419.833V239H425.833ZM422.833 228.32H423.265V222.32H422.833V228.32ZM420.947 227.224L432.179 240.904L436.816 237.096L425.584 223.416L420.947 227.224ZM434.497 242H446.089V236H434.497V242ZM449.089 239V238.856H443.089V239H449.089ZM448.357 236.892L433.453 219.684L428.918 223.612L443.822 240.82L448.357 236.892ZM433.463 223.6L447.719 206.968L443.164 203.064L428.908 219.696L433.463 223.6ZM448.441 205.016V204.872H442.441V205.016H448.441ZM445.441 201.872H434.065V207.872H445.441V201.872ZM431.723 202.998L421.067 216.318L425.752 220.066L436.408 206.746L431.723 202.998ZM423.409 215.192H422.833V221.192H423.409V215.192ZM425.833 218.192V194.864H419.833V218.192H425.833Z" fill="#FC9053"/>
<path d="M162.551 362.016C167.303 362.016 169.463 363.888 169.463 367.848C169.463 371.88 167.159 373.752 162.695 373.752H156.575V362.016H162.551ZM163.847 382.968C174.359 382.968 180.263 376.272 180.263 367.848C180.263 357.912 174.719 352.8 163.487 352.8H146.207V396H156.575V382.968H163.847ZM199.549 397.008C210.493 397.008 217.189 390.168 217.189 378.936C217.189 367.56 210.277 360.936 199.549 360.936C188.749 360.936 181.837 367.56 181.837 378.936C181.837 390.168 188.533 397.008 199.549 397.008ZM199.549 369.864C204.517 369.864 207.397 373.392 207.397 378.864C207.397 384.408 204.589 388.008 199.477 388.008C194.437 388.008 191.701 384.408 191.701 378.864C191.701 373.392 194.509 369.864 199.549 369.864ZM236.11 388.152C231.07 388.152 228.91 384.768 228.91 379.152C228.91 373.176 231.142 369.72 236.11 369.72C240.574 369.72 243.31 373.176 243.31 378.72V379.368C243.31 384.984 240.574 388.152 236.11 388.152ZM243.31 396H253.102V351.864H243.31V371.16H243.166C241.51 363.888 237.766 360.864 231.862 360.936C223.654 360.864 219.19 367.632 219.19 379.152C219.19 390.24 223.438 397.008 231.718 397.008C237.55 397.008 241.438 393.984 243.094 386.784H243.31V396ZM281.17 376.704L290.674 375.336C289.306 366.192 284.842 360.936 274.114 360.936C263.386 360.936 256.402 367.632 256.402 379.152C256.402 390.96 263.53 397.008 274.33 397.008C284.554 397.008 289.522 391.32 290.674 382.392L281.242 380.592C280.378 384.912 278.65 388.008 274.114 388.008C269.506 388.008 266.482 384.984 266.482 378.864C266.482 372.6 269.65 369.864 274.042 369.864C278.434 369.864 280.378 372.744 281.17 376.704ZM307.674 388.8C303.93 388.8 302.634 387.144 302.634 385.056C302.634 383.184 304.362 381.888 307.242 381.888H314.586V382.896C314.586 386.352 311.85 388.8 307.674 388.8ZM314.586 396H324.378V374.832C324.378 366.12 320.058 361.08 309.69 361.08C299.106 361.08 294.93 366.192 294.066 373.32L303.282 374.616C303.93 370.656 306.018 369.216 309.258 369.216C313.002 369.216 314.586 371.232 314.586 374.904V376.344H305.73C296.73 376.344 293.058 380.592 293.058 386.784C293.058 393.48 297.522 396.72 303.426 396.72C309.186 396.72 312.93 393.48 314.442 387.648H314.586V396ZM343.288 397.008C353.512 397.008 357.976 392.832 357.976 386.136C357.976 381.024 355.168 377.352 345.376 375.408C338.68 374.184 337.816 372.888 337.816 371.016C337.816 369.144 339.4 367.992 342.28 367.992C345.664 367.992 347.32 369.72 348.112 373.392L357.472 371.304C356.176 364.968 352.144 360.936 342.352 360.936C332.776 360.936 328.096 364.968 328.096 371.448C328.096 377.064 331.336 380.304 340.912 382.32C347.032 383.544 348.328 384.624 348.328 386.496C348.256 388.584 346.672 389.736 343.504 389.736C339.328 389.736 337.312 387.504 336.376 383.688L327.232 385.488C328.24 391.752 331.768 397.008 343.288 397.008ZM363.48 385.272C363.48 391.752 366.792 397.008 374.712 397.008C378.456 397.008 380.184 396.504 382.776 395.712L381.696 386.64C380.472 386.928 378.744 387.432 377.232 387.432C374.28 387.432 373.272 386.136 373.272 383.4V370.08H382.272V361.872H373.272V353.304H363.48V361.872H359.52V370.08H363.48V385.272Z" fill="#1867F2"/>
<path d="M491.118 37.9055L449.559 80.378" stroke="#F19DCD" stroke-width="8" stroke-linecap="round"/>
<path d="M449.559 33.7953L449.559 79.5" stroke="#F19DCD" stroke-width="8" stroke-linecap="round"/>
<path d="M494.772 80.372L450.023 80.372" stroke="#F19DCD" stroke-width="8" stroke-linecap="round"/>
<circle cx="471.023" cy="58" r="54" stroke="#F19DCD" stroke-width="8"/>
<path d="M53.6059 214.865L113.028 214.501" stroke="#1867F2" stroke-width="8" stroke-linecap="round"/>
<path d="M79.933 247.284L112.404 215.119" stroke="#1867F2" stroke-width="8" stroke-linecap="round"/>
<path d="M81.2044 182.383L112.696 214.175" stroke="#1867F2" stroke-width="8" stroke-linecap="round"/>
<circle cx="82.0235" cy="215" r="54" transform="rotate(-134.729 82.0235 215)" stroke="#1867F2" stroke-width="8"/>
</svg>
